<?xml version="1.0" encoding="utf-8"?>
<?xml-stylesheet type="text/xsl" href="rss1.xsl"?>
<rss version="2.0" xmlns:atom="http://www.w3.org/2005/Atom" xmlns:content="http://purl.org/rss/1.0/modules/content/" xmlns:dc="http://purl.org/dc/elements/1.1/" xmlns:media="http://search.yahoo.com/mrss/">
<channel>
 <title>Getty</title>
 <link>http://www.gettyimg.com/</link>
 <atom:link href="http://www.gettyimg.com/" rel="self" type="application/rss+xml" />

 
                <item>
                <title><![CDATA[【Music Videos】Aqua - Doctor Jones (1080p 5.1) (Clean)]]></title>
                <link><![CDATA[https://sharemania.us/threads/aqua-doctor-jones-1080p-5-1-clean.237627/]]></link>
                <description><![CDATA[<article>
<blockquote class="messageText SelectQuoteContainer ugc baseHtml">
<img src="https://i.ibb.co/0JfVMFF/Aqua-Doctor-Jones-1080p-5-1-mp4-thumbs-2024-02-12-22-29-36.jpg" class="bbCodeImage LbImage" alt="[​IMG]" data-url="https://i.ibb.co/0JfVMFF/Aqua-Doctor-Jones-1080p-5-1-mp4-thumbs-2024-02-12-22-29-36.jpg" style=""> <br>
<br>
<div class="ToggleTriggerAnchor bbCodeSpoilerContainer">
<button type="button" class="button bbCodeSpoilerButton ToggleTrigger Tooltip JsOnly" data-target="> .SpoilerTarget"><span>Spoiler: <span class="SpoilerTitle">MediaInfo</span></span></button>
<div class="SpoilerTarget bbCodeSpoilerText">Aqua - Doctor Jones (1080p 5.1).mp4<br>
Format : MPEG-4<br>
Format profile : Base Media / Version 2<br>
Codec ID : mp42 (mp42/mp41)<br>
File size : 247 MiB<br>
Duration : 3 min 23 s<br>
Overall bit rate mode : Variable<br>
Overall bit rate : 10.2 Mb/s<br>
Frame rate : 25.000 FPS<br>
Encoded date : 2024-02-13 01:08:28 UTC<br>
Tagged date : 2024-02-13 01:08:50 UTC<br>
TIM : 00:00:00:00<br>
TSC : 25<br>
TSZ : 1<br>
<br>
Video<br>
ID : 1<br>
Format : AVC<br>
Format/Info : Advanced Video Codec<br>
Format profile : Main@L4.1<br>
Format settings : CABAC / 4 Ref Frames<br>
Format settings, CABAC : Yes<br>
Format settings, Reference : 4 frames<br>
Codec ID : avc1<br>
Codec ID/Info : Advanced Video Coding<br>
Duration : 3 min 23 s<br>
Bit rate : 9 900 kb/s<br>
Width : 1 920 pixels<br>
Height : 1 080 pixels<br>
Display aspect ratio : 16:9<br>
Frame rate mode : Constant<br>
Frame rate : 25.000 FPS<br>
Color space : YUV<br>
Chroma subsampling : 4:2:0<br>
Bit depth : 8 bits<br>
Scan type : Progressive<br>
Bits/(Pixel*Frame) : 0.191<br>
Stream size : 240 MiB (97%)<br>
Language : English<br>
Encoded date : 2024-02-13 01:08:28 UTC<br>
Tagged date : 2024-02-13 01:08:28 UTC<br>
Color range : Limited<br>
Color primaries : BT.709<br>
Transfer characteristics : BT.709<br>
Matrix coefficients : BT.709<br>
Codec configuration box : avcC<br>
<br>
Audio<br>
ID : 2<br>
Format : AAC LC<br>
Format/Info : Advanced Audio Codec Low Complexity<br>
Codec ID : mp4a-40-2<br>
Duration : 3 min 23 s<br>
Source duration : 3 min 23 s<br>
Bit rate mode : Variable<br>
Bit rate : 317 kb/s<br>
Maximum bit rate : 780 kb/s<br>
Channel(s) : 6 channels<br>
Channel layout : C L R Ls Rs LFE<br>
Sampling rate : 48.0 kHz<br>
Frame rate : 46.875 FPS (1024 SPF)<br>
Compression mode : Lossy<br>
Stream size : 7.68 MiB (3%)<br>
Source stream size : 7.68 MiB (3%)<br>
Language : English<br>
Encoded date : 2024-02-13 01:08:28 UTC<br>
Tagged date : 2024-02-13 01:08:28 UTC</div>
</div><br>
<div class="bbCodeBlock bbCodeVfcHH HiddenContent">
<div class="attribution type">Hidden Content:</div>
<blockquote>You must reply before you can see the hidden data contained here.</blockquote>
</div>
<div class="messageTextEndMarker">&nbsp;</div>
</blockquote>
</article>]]></description>
                <author><![CDATA[DJ-RoGeRs-BS]]></author>
                </item>

                
                <item>
                <title><![CDATA[【Cinema Center】SERIES - The Next Step - Season 7 - 1080p Netflix WEB-DL AAC2.0 x264-LAZY]]></title>
                <link><![CDATA[https://sharemania.us/threads/the-next-step-season-7-1080p-netflix-web-dl-aac2-0-x264-lazy.237630/]]></link>
                <description><![CDATA[<article>
<blockquote class="messageText SelectQuoteContainer ugc baseHtml">
The Next Step:<img src="http:////cdn2.broadcasthe.net/tvdb/banners/graphical/269537-g.jpg" class="bbCodeImage LbImage" alt="[​IMG]" data-url="http:////cdn2.broadcasthe.net/tvdb/banners/graphical/269537-g.jpg" style=""> <br>
<br>
<div class="bbCodeBlock bbCodeQuote">
<aside>
<blockquote class="quoteContainer"><div class="quote"><i><b>Synopsis:</b></i><br>
Follow the lives of a group of dancers at The Next Step Dance Studio as they train hard, rehearse and hang out. With the regional championships coming up, the A-Troupe needs to come together if they want to win and qualify for the national title.</div><div class="quoteExpand">Click to expand...</div></blockquote>
</aside>
</div>
<div class="ToggleTriggerAnchor bbCodeSpoilerContainer">
<button type="button" class="button bbCodeSpoilerButton ToggleTrigger Tooltip JsOnly" data-target="> .SpoilerTarget"><span>Spoiler: <span class="SpoilerTitle">MediaInfo</span></span></button>
<div class="SpoilerTarget bbCodeSpoilerText">General<br>
Unique ID : 322971631036167433819738032398544521446 (0xF2FA12D384B36C157C37F602DC85C8E6)<br>
Complete name : The.Next.Step.S07E01.The.Goodbye.Girl.1080p.NF.WEB-DL.AAC2.0.x264-LAZY.mkv<br>
Format : Matroska<br>
Format version : Version 4<br>
File size : 966 MiB<br>
Duration : 22 min 47 s<br>
Overall bit rate mode : Variable<br>
Overall bit rate : 5 924 kb/s<br>
Encoded date : UTC 2024-02-12 17:28:16<br>
Writing application : mkvmerge v82.0 ('I'm The President') 64-bit<br>
Writing library : libebml v1.4.5 + libmatroska v1.7.1<br>
<br>
Video<br>
ID : 1<br>
Format : AVC<br>
Format/Info : Advanced Video Codec<br>
Format profile : Main@L4<br>
Format settings : CABAC / 3 Ref Frames<br>
Format settings, CABAC : Yes<br>
Format settings, Reference frames : 3 frames<br>
Codec ID : V_MPEG4/ISO/AVC<br>
Duration : 22 min 47 s<br>
Bit rate mode : Variable<br>
Bit rate : 5 800 kb/s<br>
Maximum bit rate : 8 700 kb/s<br>
Width : 1 920 pixels<br>
Height : 1 080 pixels<br>
Display aspect ratio : 16:9<br>
Frame rate mode : Constant<br>
Frame rate : 23.976 (24000/1001) FPS<br>
Color space : YUV<br>
Chroma subsampling : 4:2:0<br>
Bit depth : 8 bits<br>
Scan type : Progressive<br>
Bits/(Pixel*Frame) : 0.117<br>
Stream size : 944 MiB (98%)<br>
Writing library : x264 core 148 r2727 7d026e8<br>
Encoding settings : cabac=1 / ref=3 / deblock=1:0:0 / analyse=0x1:0x111 / me=umh / subme=10 / psy=1 / psy_rd=1.00:0.00 / mixed_ref=1 / me_range=24 / chroma_me=1 / trellis=2 / 8x8dct=0 / cqm=0 / deadzone=21,11 / fast_pskip=1 / chroma_qp_offset=-2 / threads=6 / lookahead_threads=1 / sliced_threads=0 / nr=0 / decimate=1 / interlaced=0 / bluray_compat=0 / stitchable=1 / constrained_intra=0 / bframes=2 / b_pyramid=0 / b_adapt=2 / b_bias=0 / direct=3 / weightb=1 / open_gop=0 / weightp=2 / keyint=240 / keyint_min=121 / scenecut=0 / intra_refresh=0 / rc_lookahead=48 / rc=2pass / mbtree=1 / bitrate=5800 / ratetol=1.0 / qcomp=0.50 / qpmin=6 / qpmax=51 / qpstep=4 / cplxblur=20.0 / qblur=0.5 / vbv_maxrate=8700 / vbv_bufsize=11600 / nal_hrd=vbr / filler=0 / ip_ratio=1.40 / aq=1:1.00<br>
Default : Yes<br>
Forced : No<br>
<br>
Audio<br>
ID : 2<br>
Format : AAC LC SBR<br>
Format/Info : Advanced Audio Codec Low Complexity with Spectral Band Replication<br>
Commercial name : HE-AAC<br>
Format settings : Explicit<br>
Codec ID : A_AAC-2<br>
Duration : 22 min 47 s<br>
Bit rate : 128 kb/s<br>
Channel(s) : 2 channels<br>
Channel layout : L R<br>
Sampling rate : 48.0 kHz<br>
Frame rate : 23.438 FPS (2048 SPF)<br>
Compression mode : Lossy<br>
Stream size : 20.9 MiB (2%)<br>
Language : English<br>
Default : Yes<br>
Forced : No<br>
<br>
Text<br>
ID : 3<br>
Format : UTF-8<br>
Codec ID : S_TEXT/UTF8<br>
Codec ID/Info : UTF-8 Plain Text<br>
Duration : 22 min 28 s<br>
Bit rate : 133 b/s<br>
Count of elements : 506<br>
Stream size : 21.9 KiB (0%)<br>
Title : SDH<br>
Language : English<br>
Default : No<br>
Forced : No<br>
<br>
Menu<br>
00:00:00.000 : en<img src="styles/default/xenforo/smilies/grimace-48.png" class="mceSmilie" alt=":p" title="Stick Out Tongue    :p">art 01<br>
00:22:08.450 : en:Credits</div>
</div><br>
Screenshots:<br>
<img src="https://i.imgur.com/GH5rHKM.jpeg" class="bbCodeImage LbImage" alt="[​IMG]" data-url="https://i.imgur.com/GH5rHKM.jpeg" style=""> <br>
<br>
<div class="bbCodeBlock bbCodeVfcHH HiddenContent">
<div class="attribution type">Hidden Content:</div>
<blockquote>You must either reply or click 'Like' to see the hidden information contained here.</blockquote>
</div>
<div class="messageTextEndMarker">&nbsp;</div>
</blockquote>
</article>]]></description>
                <author><![CDATA[LazyRips]]></author>
                </item>

                
                <item>
                <title><![CDATA[【Cinema Center】SERIES - 101 Dalmatian Street - Season 1 - 1080p Disney+ WEB-DL DDP5.1 H.264-LAZY]]></title>
                <link><![CDATA[https://sharemania.us/threads/101-dalmatian-street-season-1-1080p-disney-web-dl-ddp5-1-h-264-lazy.237629/]]></link>
                <description><![CDATA[<article>
<blockquote class="messageText SelectQuoteContainer ugc baseHtml">
101 Dalmatian Street:<img src="http:////cdn2.broadcasthe.net/tvdb/banners/graphical/5c1eb6e4c08df.jpg" class="bbCodeImage LbImage" alt="[​IMG]" data-url="http:////cdn2.broadcasthe.net/tvdb/banners/graphical/5c1eb6e4c08df.jpg" style=""> <br>
<br>
<div class="bbCodeBlock bbCodeQuote">
<aside>
<blockquote class="quoteContainer"><div class="quote"><i><b>Synopsis:</b></i><br>
The adventures of Dolly and Dylan and their 97 brothers and sisters, along with mom Delilah and dad Doug.</div><div class="quoteExpand">Click to expand...</div></blockquote>
</aside>
</div>
<div class="ToggleTriggerAnchor bbCodeSpoilerContainer">
<button type="button" class="button bbCodeSpoilerButton ToggleTrigger Tooltip JsOnly" data-target="> .SpoilerTarget"><span>Spoiler: <span class="SpoilerTitle">MediaInfo</span></span></button>
<div class="SpoilerTarget bbCodeSpoilerText">General<br>
Unique ID : 269152812679286065694289072935423350644 (0xCA7CF2373F562966D29B505B23CE9774)<br>
Complete name : 101.Dalmatian.Street.S01E01E02.Dogs.Best.Friend.-.Boom.Night.1080p.DSNP.WEB-DL.DDP5.1.H.264-LAZY.mkv<br>
Format : Matroska<br>
Format version : Version 4<br>
File size : 1.39 GiB<br>
Duration : 22 min 47 s<br>
Overall bit rate mode : Variable<br>
Overall bit rate : 8 723 kb/s<br>
Encoded date : UTC 2024-02-11 19:00:21<br>
Writing application : mkvmerge v82.0 ('I'm The President') 64-bit<br>
Writing library : libebml v1.4.5 + libmatroska v1.7.1<br>
<br>
Video<br>
ID : 1<br>
Format : AVC<br>
Format/Info : Advanced Video Codec<br>
Format profile : High@L4<br>
Format settings : CABAC / 4 Ref Frames<br>
Format settings, CABAC : Yes<br>
Format settings, Reference frames : 4 frames<br>
Codec ID : V_MPEG4/ISO/AVC<br>
Duration : 22 min 47 s<br>
Bit rate mode : Variable<br>
Bit rate : 8 464 kb/s<br>
Maximum bit rate : 12.7 Mb/s<br>
Width : 1 920 pixels<br>
Height : 1 080 pixels<br>
Display aspect ratio : 16:9<br>
Frame rate mode : Constant<br>
Frame rate : 23.976 (24000/1001) FPS<br>
Color space : YUV<br>
Chroma subsampling : 4:2:0<br>
Bit depth : 8 bits<br>
Scan type : Progressive<br>
Bits/(Pixel*Frame) : 0.170<br>
Stream size : 1.35 GiB (97%)<br>
Default : Yes<br>
Forced : No<br>
Color range : Limited<br>
Color primaries : BT.709<br>
Transfer characteristics : BT.709<br>
Matrix coefficients : BT.709<br>
<br>
Audio<br>
ID : 2<br>
Format : E-AC-3<br>
Format/Info : Enhanced AC-3<br>
Commercial name : Dolby Digital Plus<br>
Codec ID : A_EAC3<br>
Duration : 22 min 47 s<br>
Bit rate mode : Constant<br>
Bit rate : 256 kb/s<br>
Channel(s) : 6 channels<br>
Channel layout : L R C LFE Ls Rs<br>
Sampling rate : 48.0 kHz<br>
Frame rate : 31.250 FPS (1536 SPF)<br>
Compression mode : Lossy<br>
Stream size : 41.7 MiB (3%)<br>
Language : English<br>
Service kind : Complete Main<br>
Default : Yes<br>
Forced : No<br>
<br>
Text #1<br>
ID : 3<br>
Format : UTF-8<br>
Codec ID : S_TEXT/UTF8<br>
Codec ID/Info : UTF-8 Plain Text<br>
Duration : 22 min 45 s<br>
Bit rate : 77 b/s<br>
Count of elements : 509<br>
Stream size : 12.9 KiB (0%)<br>
Title : SDH<br>
Language : English<br>
Default : No<br>
Forced : No<br>
<br>
Text #2<br>
ID : 4<br>
Format : UTF-8<br>
Codec ID : S_TEXT/UTF8<br>
Codec ID/Info : UTF-8 Plain Text<br>
Duration : 22 min 13 s<br>
Bit rate : 53 b/s<br>
Count of elements : 334<br>
Stream size : 8.65 KiB (0%)<br>
Language : Czech<br>
Default : No<br>
Forced : No<br>
<br>
Text #3<br>
ID : 5<br>
Format : UTF-8<br>
Codec ID : S_TEXT/UTF8<br>
Codec ID/Info : UTF-8 Plain Text<br>
Duration : 22 min 44 s<br>
Bit rate : 80 b/s<br>
Count of elements : 325<br>
Stream size : 13.4 KiB (0%)<br>
Language : Greek<br>
Default : No<br>
Forced : No<br>
<br>
Text #4<br>
ID : 6<br>
Format : UTF-8<br>
Codec ID : S_TEXT/UTF8<br>
Codec ID/Info : UTF-8 Plain Text<br>
Duration : 22 min 13 s<br>
Bit rate : 49 b/s<br>
Count of elements : 336<br>
Stream size : 8.13 KiB (0%)<br>
Language : Hungarian<br>
Default : No<br>
Forced : No<br>
<br>
Text #5<br>
ID : 7<br>
Format : UTF-8<br>
Codec ID : S_TEXT/UTF8<br>
Codec ID/Info : UTF-8 Plain Text<br>
Duration : 22 min 13 s<br>
Bit rate : 46 b/s<br>
Count of elements : 313<br>
Stream size : 7.65 KiB (0%)<br>
Language : Polish<br>
Default : No<br>
Forced : No<br>
<br>
Text #6<br>
ID : 8<br>
Format : UTF-8<br>
Codec ID : S_TEXT/UTF8<br>
Codec ID/Info : UTF-8 Plain Text<br>
Duration : 22 min 13 s<br>
Bit rate : 52 b/s<br>
Count of elements : 323<br>
Stream size : 8.52 KiB (0%)<br>
Title : European<br>
Language : Portuguese<br>
Default : No<br>
Forced : No<br>
<br>
Text #7<br>
ID : 9<br>
Format : UTF-8<br>
Codec ID : S_TEXT/UTF8<br>
Codec ID/Info : UTF-8 Plain Text<br>
Duration : 22 min 20 s<br>
Bit rate : 49 b/s<br>
Count of elements : 279<br>
Stream size : 8.04 KiB (0%)<br>
Language : Romanian<br>
Default : No<br>
Forced : No<br>
<br>
Text #8<br>
ID : 10<br>
Format : UTF-8<br>
Codec ID : S_TEXT/UTF8<br>
Codec ID/Info : UTF-8 Plain Text<br>
Duration : 22 min 13 s<br>
Bit rate : 52 b/s<br>
Count of elements : 309<br>
Stream size : 8.47 KiB (0%)<br>
Language : Turkish<br>
Default : No<br>
Forced : No<br>
<br>
Text #9<br>
ID : 11<br>
Format : UTF-8<br>
Codec ID : S_TEXT/UTF8<br>
Codec ID/Info : UTF-8 Plain Text<br>
Duration : 22 min 45 s<br>
Bit rate : 47 b/s<br>
Count of elements : 351<br>
Stream size : 7.96 KiB (0%)<br>
Title : Traditional, Hong Kong<br>
Language : Chinese<br>
Default : No<br>
Forced : No<br>
<br>
Text #10<br>
ID : 12<br>
Format : UTF-8<br>
Codec ID : S_TEXT/UTF8<br>
Codec ID/Info : UTF-8 Plain Text<br>
Duration : 22 min 45 s<br>
Bit rate : 47 b/s<br>
Count of elements : 351<br>
Stream size : 7.95 KiB (0%)<br>
Title : Traditional<br>
Language : Chinese<br>
Default : No<br>
Forced : No<br>
<br>
Menu<br>
00:00:00.041 : en:Intro<br>
00:00:47.255 : en:Scene 1<br>
00:11:44.246 : en:Scene 2<br>
00:22:19.339 : en:Credits</div>
</div><br>
Screenshots:<br>
<img src="https://i.imgur.com/2XCVUPl.jpeg" class="bbCodeImage LbImage" alt="[​IMG]" data-url="https://i.imgur.com/2XCVUPl.jpeg" style=""> <br>
<br>
<div class="bbCodeBlock bbCodeVfcHH HiddenContent">
<div class="attribution type">Hidden Content:</div>
<blockquote>You must either reply or click 'Like' to see the hidden information contained here.</blockquote>
</div>
<div class="messageTextEndMarker">&nbsp;</div>
</blockquote>
</article>]]></description>
                <author><![CDATA[LazyRips]]></author>
                </item>

                
                <item>
                <title><![CDATA[【Singles (lossless)】FLAC - Rejjie Snow, L'Impératrice - Everything Eventually Ends | BANDCAMP 24bit / 44.1kHz]]></title>
                <link><![CDATA[https://sharemania.us/threads/rejjie-snow-limp%C3%A9ratrice-everything-eventually-ends-bandcamp-24bit-44-1khz.237628/]]></link>
                <description><![CDATA[<article>
<blockquote class="messageText SelectQuoteContainer ugc baseHtml">
<img src="https://f4.bcbits.com/img/a1752291401_10.jpg" class="bbCodeImage LbImage" alt="[​IMG]" data-url="https://f4.bcbits.com/img/a1752291401_10.jpg" style=""> <br>
<div class="bbCodeBlock bbCodeVfcHH HiddenContent">
<div class="attribution type">Hidden Content:</div>
<blockquote>You must reply before you can see the hidden data contained here.</blockquote>
</div>
<div class="messageTextEndMarker">&nbsp;</div>
</blockquote>
</article>]]></description>
                <author><![CDATA[onomatopeya]]></author>
                </item>

                
                <item>
                <title><![CDATA[【Requests】[REQ AUD] - [REQ AUD] Mon Laferte - Autopoiética (Album) | Dolby Atmos E-AC3-JOC |  5.1 |]]></title>
                <link><![CDATA[https://sharemania.us/threads/req-aud-mon-laferte-autopoi%C3%A9tica-album-dolby-atmos-e-ac3-joc-5-1.237631/]]></link>
                <description><![CDATA[<article>
<blockquote class="messageText SelectQuoteContainer ugc baseHtml">
Hello everyone, I wanted to ask for help if someone could get this great album in Dolby Atmos please I would greatly appreciate it<br>
<img src="styles/default/xenforo/smilies/red_heart-48.png" class="mceSmilie" alt=":love:" title="hearts    :love:"><br>
<a href="https://tidal.com/browse/album/326411521" target="_blank" class="externalLink" rel="nofollow">https://tidal.com/browse/album/326411521</a><br>
<a href="https://amazon.com/music/player/albums/B0CMGQZKZJ?marketplaceId=ATVPDKIKX0DER&amp;musicTerritory=US&amp;ref=dm_sh_mNWQKBSvReEUEzGwQm568rRvE" target="_blank" class="externalLink" rel="nofollow">https://amazon.com/music/player/alb...ritory=US&amp;ref=dm_sh_mNWQKBSvReEUEzGwQm568rRvE</a><br>
<a href="https://music.apple.com/us/album/autopoi%C3%A9tica/1712826844" target="_blank" class="externalLink" rel="nofollow">https://music.apple.com/us/album/autopoiética/1712826844</a>
<div class="messageTextEndMarker">&nbsp;</div>
</blockquote>
</article>]]></description>
                <author><![CDATA[Santiago Denzel Illanes]]></author>
                </item>

                </channel></rss>